<svg xmlns="http://www.w3.org/2000/svg" viewBox="0 0 180 162.1"><defs><style>.cls-1{fill:#595959;}</style></defs><title>logo_innata_2</title><g id="Layer_2" data-name="Layer 2"><g id="Layer_1-2" data-name="Layer 1"><path class="cls-1" d="M88.9,30.33V0h2.2V30.33Z"/><path class="cls-1" d="M62.24,64.14H64.4V96.77L43.92,69.45V95.59H41.76V63L62.24,90.29Z"/><path class="cls-1" d="M136.08,64.14h2.16V96.77L117.76,69.45V95.59h-2.17V63l20.49,27.33Z"/><path class="cls-1" d="M27.09,162.1,24,155.15H5.55L2.4,162.1H0l14.79-32.63,14.7,32.63ZM23,153l-8.21-18.2L6.53,153Z"/><path class="cls-1" d="M91.06,132.85V162.1h-2.2V132.85H81.94v-2.2H98.06v2.2Z"/><path class="cls-1" d="M177.6,162.1l-3.11-6.95H156.05l-3.14,6.95h-2.4l14.78-32.63L180,162.1ZM173.51,153l-8.22-18.2L157,153Z"/></g></g></svg>